<svg width="23" height="16" viewBox="0 0 23 16" fill="none" xmlns="http://www.w3.org/2000/svg">
<path d="M22.7693 1.14282L15.8027 7.99933L22.7693 14.8558C22.901 14.589 22.9703 14.2962 22.972 13.9991V1.99808C22.9701 1.70154 22.9008 1.40923 22.7693 1.14282Z" fill="#C4C4C4"/>
<path d="M20.9566 0H2.01837C1.71853 0.0017077 1.42294 0.0703461 1.15356 0.200812L10.0583 8.97732C10.4372 9.35191 10.9507 9.56229 11.486 9.56229C12.0214 9.56229 12.5348 9.35191 12.9138 8.97732L21.8185 0.200812C21.55 0.0708147 21.2554 0.00218994 20.9566 0Z" fill="#C4C4C4"/>
<path d="M0.202712 1.14282C0.0710116 1.40967 0.00172385 1.7025 0 1.99953L0 14.0006C0.00172385 14.2976 0.0710116 14.5905 0.202712 14.8573L7.16929 8.0008L0.202712 1.14282Z" fill="#C4C4C4"/>
<path d="M14.8505 8.94263L13.8646 9.91924C13.2331 10.5434 12.3774 10.8939 11.4853 10.8939C10.5932 10.8939 9.73753 10.5434 9.10599 9.91924L8.12013 8.94263L1.15356 15.7992C1.42294 15.9296 1.71853 15.9983 2.01837 16H20.9566C21.2564 15.9983 21.552 15.9296 21.8214 15.7992L14.8505 8.94263Z" fill="#C4C4C4"/>
</svg>
